G04 #@! TF.FileFunction,Copper,L2,Bot,Signal*
%FSLAX46Y46*%
G04 Gerber Fmt 4.6, Leading zero omitted, Abs format (unit mm)*
G04 Created by KiCad (PCBNEW 4.0.1-4.201602090852+6195~38~ubuntu14.04.1-stable) date Tue 09 Feb 2016 10:22:48 PM CST*
%MOMM*%
G01*
G04 APERTURE LIST*
%ADD10C,0.100000*%
%ADD11C,1.397000*%
%ADD12C,1.016000*%
%ADD13C,0.203200*%
G04 APERTURE END LIST*
D10*
D11*
X136535000Y-108267500D03*
X131435000Y-108267500D03*
D12*
X136906000Y-105410000D03*
D13*
G36*
X138685200Y-113031200D02*
X129284800Y-113031200D01*
X129284800Y-108466193D01*
X130431526Y-108466193D01*
X130583948Y-108835081D01*
X130865934Y-109117561D01*
X131234556Y-109270626D01*
X131633693Y-109270974D01*
X132002581Y-109118552D01*
X132285061Y-108836566D01*
X132438126Y-108467944D01*
X132438127Y-108466193D01*
X135531526Y-108466193D01*
X135683948Y-108835081D01*
X135965934Y-109117561D01*
X136334556Y-109270626D01*
X136733693Y-109270974D01*
X137102581Y-109118552D01*
X137385061Y-108836566D01*
X137538126Y-108467944D01*
X137538474Y-108068807D01*
X137386052Y-107699919D01*
X137104066Y-107417439D01*
X136735444Y-107264374D01*
X136336307Y-107264026D01*
X135967419Y-107416448D01*
X135684939Y-107698434D01*
X135531874Y-108067056D01*
X135531526Y-108466193D01*
X132438127Y-108466193D01*
X132438474Y-108068807D01*
X132286052Y-107699919D01*
X132004066Y-107417439D01*
X131635444Y-107264374D01*
X131236307Y-107264026D01*
X130867419Y-107416448D01*
X130584939Y-107698434D01*
X130431874Y-108067056D01*
X130431526Y-108466193D01*
X129284800Y-108466193D01*
X129284800Y-99566800D01*
X138685200Y-99566800D01*
X138685200Y-113031200D01*
X138685200Y-113031200D01*
G37*
X138685200Y-113031200D02*
X129284800Y-113031200D01*
X129284800Y-108466193D01*
X130431526Y-108466193D01*
X130583948Y-108835081D01*
X130865934Y-109117561D01*
X131234556Y-109270626D01*
X131633693Y-109270974D01*
X132002581Y-109118552D01*
X132285061Y-108836566D01*
X132438126Y-108467944D01*
X132438127Y-108466193D01*
X135531526Y-108466193D01*
X135683948Y-108835081D01*
X135965934Y-109117561D01*
X136334556Y-109270626D01*
X136733693Y-109270974D01*
X137102581Y-109118552D01*
X137385061Y-108836566D01*
X137538126Y-108467944D01*
X137538474Y-108068807D01*
X137386052Y-107699919D01*
X137104066Y-107417439D01*
X136735444Y-107264374D01*
X136336307Y-107264026D01*
X135967419Y-107416448D01*
X135684939Y-107698434D01*
X135531874Y-108067056D01*
X135531526Y-108466193D01*
X132438127Y-108466193D01*
X132438474Y-108068807D01*
X132286052Y-107699919D01*
X132004066Y-107417439D01*
X131635444Y-107264374D01*
X131236307Y-107264026D01*
X130867419Y-107416448D01*
X130584939Y-107698434D01*
X130431874Y-108067056D01*
X130431526Y-108466193D01*
X129284800Y-108466193D01*
X129284800Y-99566800D01*
X138685200Y-99566800D01*
X138685200Y-113031200D01*
M02*
