G04 #@! TF.FileFunction,Copper,L1,Top,Signal*
%FSLAX46Y46*%
G04 Gerber Fmt 4.6, Leading zero omitted, Abs format (unit mm)*
G04 Created by KiCad (PCBNEW 4.0.1-4.201602090852+6195~38~ubuntu14.04.1-stable) date Tue 09 Feb 2016 10:22:48 PM CST*
%MOMM*%
G01*
G04 APERTURE LIST*
%ADD10C,0.100000*%
%ADD11R,1.270000X3.048000*%
%ADD12R,1.500000X1.050000*%
%ADD13C,1.397000*%
%ADD14C,1.016000*%
%ADD15C,0.762000*%
%ADD16C,0.203200*%
G04 APERTURE END LIST*
D10*
D11*
X132715000Y-105410000D03*
X135255000Y-105410000D03*
D12*
X134016500Y-110998000D03*
X134016500Y-107948000D03*
D13*
X136535000Y-108267500D03*
X131435000Y-108267500D03*
D14*
X136906000Y-105410000D03*
D15*
X136535000Y-108267500D02*
X136535000Y-108479500D01*
X136535000Y-108479500D02*
X134016500Y-110998000D01*
X135255000Y-105410000D02*
X136906000Y-105410000D01*
X135255000Y-105410000D02*
X135255000Y-106709500D01*
X135255000Y-106709500D02*
X134016500Y-107948000D01*
D16*
G36*
X138685200Y-113031200D02*
X129284800Y-113031200D01*
X129284800Y-110473000D01*
X132955729Y-110473000D01*
X132955729Y-111523000D01*
X132976982Y-111635952D01*
X133043737Y-111739692D01*
X133145593Y-111809287D01*
X133266500Y-111833771D01*
X134766500Y-111833771D01*
X134879452Y-111812518D01*
X134983192Y-111745763D01*
X135052787Y-111643907D01*
X135077271Y-111523000D01*
X135077271Y-110907097D01*
X136713412Y-109270956D01*
X136733693Y-109270974D01*
X137102581Y-109118552D01*
X137385061Y-108836566D01*
X137538126Y-108467944D01*
X137538474Y-108068807D01*
X137386052Y-107699919D01*
X137104066Y-107417439D01*
X136735444Y-107264374D01*
X136336307Y-107264026D01*
X135967419Y-107416448D01*
X135684939Y-107698434D01*
X135531874Y-108067056D01*
X135531526Y-108466193D01*
X135545243Y-108499389D01*
X133882403Y-110162229D01*
X133266500Y-110162229D01*
X133153548Y-110183482D01*
X133049808Y-110250237D01*
X132980213Y-110352093D01*
X132955729Y-110473000D01*
X129284800Y-110473000D01*
X129284800Y-107423000D01*
X132955729Y-107423000D01*
X132955729Y-108473000D01*
X132976982Y-108585952D01*
X133043737Y-108689692D01*
X133145593Y-108759287D01*
X133266500Y-108783771D01*
X134766500Y-108783771D01*
X134879452Y-108762518D01*
X134983192Y-108695763D01*
X135052787Y-108593907D01*
X135077271Y-108473000D01*
X135077271Y-107857097D01*
X135689596Y-107244771D01*
X135890000Y-107244771D01*
X136002952Y-107223518D01*
X136106692Y-107156763D01*
X136176287Y-107054907D01*
X136200771Y-106934000D01*
X136200771Y-106095800D01*
X136442132Y-106095800D01*
X136444984Y-106098657D01*
X136743615Y-106222659D01*
X137066967Y-106222941D01*
X137365813Y-106099460D01*
X137594657Y-105871016D01*
X137718659Y-105572385D01*
X137718941Y-105249033D01*
X137595460Y-104950187D01*
X137367016Y-104721343D01*
X137068385Y-104597341D01*
X136745033Y-104597059D01*
X136446187Y-104720540D01*
X136442521Y-104724200D01*
X136200771Y-104724200D01*
X136200771Y-103886000D01*
X136179518Y-103773048D01*
X136112763Y-103669308D01*
X136010907Y-103599713D01*
X135890000Y-103575229D01*
X134620000Y-103575229D01*
X134507048Y-103596482D01*
X134403308Y-103663237D01*
X134333713Y-103765093D01*
X134309229Y-103886000D01*
X134309229Y-106685404D01*
X133882403Y-107112229D01*
X133266500Y-107112229D01*
X133153548Y-107133482D01*
X133049808Y-107200237D01*
X132980213Y-107302093D01*
X132955729Y-107423000D01*
X129284800Y-107423000D01*
X129284800Y-99566800D01*
X138685200Y-99566800D01*
X138685200Y-113031200D01*
X138685200Y-113031200D01*
G37*
X138685200Y-113031200D02*
X129284800Y-113031200D01*
X129284800Y-110473000D01*
X132955729Y-110473000D01*
X132955729Y-111523000D01*
X132976982Y-111635952D01*
X133043737Y-111739692D01*
X133145593Y-111809287D01*
X133266500Y-111833771D01*
X134766500Y-111833771D01*
X134879452Y-111812518D01*
X134983192Y-111745763D01*
X135052787Y-111643907D01*
X135077271Y-111523000D01*
X135077271Y-110907097D01*
X136713412Y-109270956D01*
X136733693Y-109270974D01*
X137102581Y-109118552D01*
X137385061Y-108836566D01*
X137538126Y-108467944D01*
X137538474Y-108068807D01*
X137386052Y-107699919D01*
X137104066Y-107417439D01*
X136735444Y-107264374D01*
X136336307Y-107264026D01*
X135967419Y-107416448D01*
X135684939Y-107698434D01*
X135531874Y-108067056D01*
X135531526Y-108466193D01*
X135545243Y-108499389D01*
X133882403Y-110162229D01*
X133266500Y-110162229D01*
X133153548Y-110183482D01*
X133049808Y-110250237D01*
X132980213Y-110352093D01*
X132955729Y-110473000D01*
X129284800Y-110473000D01*
X129284800Y-107423000D01*
X132955729Y-107423000D01*
X132955729Y-108473000D01*
X132976982Y-108585952D01*
X133043737Y-108689692D01*
X133145593Y-108759287D01*
X133266500Y-108783771D01*
X134766500Y-108783771D01*
X134879452Y-108762518D01*
X134983192Y-108695763D01*
X135052787Y-108593907D01*
X135077271Y-108473000D01*
X135077271Y-107857097D01*
X135689596Y-107244771D01*
X135890000Y-107244771D01*
X136002952Y-107223518D01*
X136106692Y-107156763D01*
X136176287Y-107054907D01*
X136200771Y-106934000D01*
X136200771Y-106095800D01*
X136442132Y-106095800D01*
X136444984Y-106098657D01*
X136743615Y-106222659D01*
X137066967Y-106222941D01*
X137365813Y-106099460D01*
X137594657Y-105871016D01*
X137718659Y-105572385D01*
X137718941Y-105249033D01*
X137595460Y-104950187D01*
X137367016Y-104721343D01*
X137068385Y-104597341D01*
X136745033Y-104597059D01*
X136446187Y-104720540D01*
X136442521Y-104724200D01*
X136200771Y-104724200D01*
X136200771Y-103886000D01*
X136179518Y-103773048D01*
X136112763Y-103669308D01*
X136010907Y-103599713D01*
X135890000Y-103575229D01*
X134620000Y-103575229D01*
X134507048Y-103596482D01*
X134403308Y-103663237D01*
X134333713Y-103765093D01*
X134309229Y-103886000D01*
X134309229Y-106685404D01*
X133882403Y-107112229D01*
X133266500Y-107112229D01*
X133153548Y-107133482D01*
X133049808Y-107200237D01*
X132980213Y-107302093D01*
X132955729Y-107423000D01*
X129284800Y-107423000D01*
X129284800Y-99566800D01*
X138685200Y-99566800D01*
X138685200Y-113031200D01*
M02*
